<?xml version="1.0" standalone="no"?>
<!DOCTYPE svg PUBLIC "-//W3C//DTD SVG 20010904//EN"
 "http://www.w3.org/TR/2001/REC-SVG-20010904/DTD/svg10.dtd">
<svg version="1.0" xmlns="http://www.w3.org/2000/svg"
 width="1000.000000pt" height="1000.000000pt" viewBox="0 0 1000.000000 1000.000000"
 preserveAspectRatio="xMidYMid meet">
<metadata>
Created by potrace 1.14, written by Peter Selinger 2001-2017
</metadata>
<g transform="translate(0.000000,1000.000000) scale(0.100000,-0.100000)"
fill="#000000" stroke="none">
<path d="M4807 9994 c-1 -1 -45 -5 -97 -8 -163 -11 -299 -23 -344 -32 -11 -2
-42 -6 -70 -9 -28 -3 -58 -8 -66 -10 -8 -2 -31 -6 -50 -9 -19 -3 -46 -8 -60
-11 -14 -3 -38 -7 -55 -10 -40 -7 -114 -24 -205 -47 -41 -11 -87 -21 -103 -23
-15 -2 -32 -7 -37 -10 -6 -3 -19 -8 -30 -10 -29 -6 -193 -56 -205 -64 -5 -3
-17 -7 -25 -8 -8 -1 -51 -16 -95 -33 -44 -17 -89 -33 -99 -35 -20 -5 -131 -50
-221 -90 -27 -12 -75 -33 -105 -46 -109 -47 -403 -201 -475 -248 -22 -15 -57
-35 -77 -46 -21 -11 -38 -23 -38 -27 0 -3 -10 -10 -22 -14 -12 -3 -26 -10 -32
-15 -6 -5 -67 -49 -136 -97 -176 -123 -351 -258 -455 -353 -16 -15 -57 -51
-90 -81 -145 -129 -368 -362 -496 -518 -30 -36 -56 -67 -59 -70 -12 -12 -132
-173 -197 -265 -252 -356 -486 -825 -609 -1220 -25 -80 -91 -328 -98 -371 -3
-13 -14 -57 -25 -98 -19 -70 -29 -118 -66 -331 -20 -116 -23 -141 -31 -235 -3
-47 -8 -93 -10 -103 -15 -84 -19 -266 -15 -762 1 -60 0 -121 -3 -135 -2 -14 3
-40 10 -58 18 -43 26 -130 14 -137 -6 -4 -4 -12 4 -21 8 -7 17 -44 21 -81 3
-38 10 -90 15 -118 6 -27 17 -88 26 -135 46 -248 169 -654 267 -885 59 -138
184 -397 207 -430 4 -5 27 -48 51 -95 52 -103 176 -307 252 -415 31 -44 66
-95 79 -113 13 -18 28 -39 33 -45 6 -7 26 -32 45 -57 19 -25 37 -47 40 -50 3
-3 31 -39 63 -81 69 -91 565 -575 704 -687 28 -22 218 -164 259 -192 85 -60
204 -138 226 -149 15 -8 36 -21 46 -30 10 -9 33 -25 52 -35 19 -11 37 -23 40
-26 3 -4 32 -23 65 -41 33 -19 74 -42 90 -51 88 -51 357 -179 500 -238 44 -18
89 -37 100 -42 12 -5 27 -10 35 -12 8 -2 29 -8 45 -15 48 -20 104 -40 205 -72
52 -17 102 -34 110 -37 8 -3 20 -6 25 -7 6 -2 62 -17 126 -33 64 -17 128 -34
143 -37 34 -7 78 -16 91 -19 6 -2 28 -6 50 -10 22 -4 72 -14 110 -21 72 -14
141 -24 210 -30 22 -3 50 -6 62 -9 23 -5 87 -11 243 -22 52 -4 194 -7 315 -7
199 0 258 2 420 18 113 11 153 15 210 21 51 5 278 43 355 60 14 3 34 6 45 8
11 2 34 6 50 10 17 3 44 8 60 11 17 2 50 9 75 16 25 6 56 13 70 16 33 6 42 9
60 15 65 24 210 70 230 74 13 3 28 11 32 17 4 7 8 9 8 5 0 -4 20 1 45 12 25
11 45 16 45 13 0 -4 5 -2 12 5 7 7 17 12 24 12 6 0 29 8 50 17 22 9 47 18 57
20 9 1 57 21 105 44 48 23 134 63 192 89 134 60 332 167 338 182 2 4 8 8 14 8
20 0 228 134 236 153 2 4 10 7 17 7 7 0 15 4 17 8 2 4 48 40 103 79 55 40 129
94 165 120 35 26 78 56 95 67 16 10 46 33 65 50 20 17 60 51 90 76 167 141
475 457 558 575 4 6 25 33 47 60 44 54 145 190 242 325 33 47 93 139 134 205
288 476 496 1007 614 1570 34 164 34 167 46 159 14 -9 -8 -184 -26 -215 -11
-16 22 -10 46 9 25 21 24 20 35 254 6 129 5 139 -15 167 -12 16 -21 32 -21 36
0 4 14 20 32 37 30 28 30 29 10 35 -17 4 -22 13 -22 37 0 18 5 37 11 43 6 6 8
17 3 24 -4 7 -7 49 -5 94 5 142 4 368 -3 460 -3 50 -8 169 -11 265 -5 225 -10
262 -70 565 -13 66 -26 137 -29 157 -3 21 -10 55 -15 75 -5 21 -17 67 -26 102
-24 97 -133 419 -161 474 -13 27 -24 54 -24 62 0 7 -12 39 -26 71 -14 33 -32
73 -39 89 -122 286 -231 491 -368 695 -27 41 -77 116 -111 165 -181 269 -313
429 -566 684 -269 271 -589 528 -875 701 -49 30 -92 57 -95 60 -5 5 -24 16
-94 55 -66 36 -199 107 -231 123 -16 8 -37 19 -45 23 -8 5 -22 12 -30 16 -25
10 -101 44 -170 75 -364 165 -910 324 -1285 373 -22 3 -56 8 -75 10 -77 11
-210 23 -335 31 -77 5 -464 12 -468 8z"/>
<path d="M9845 3688 c-27 -151 -62 -289 -109 -435 -56 -175 -78 -254 -73 -260
14 -13 62 59 86 131 78 227 110 348 137 516 3 19 10 50 17 68 12 36 2 65 -25
70 -12 2 -19 -17 -33 -90z"/>
<path d="M110 3659 c0 -36 28 -139 42 -154 5 -6 7 5 4 30 -2 22 -8 66 -11 98
-5 39 -12 57 -21 57 -9 0 -14 -11 -14 -31z"/>
<path d="M9638 2921 c-8 -10 -39 -74 -68 -142 -29 -68 -57 -132 -62 -141 -21
-42 6 -11 67 77 37 52 76 101 87 109 17 12 19 21 14 53 -10 56 -19 66 -38 44z"/>
<path d="M9199 2103 c-13 -16 -12 -17 4 -4 16 13 21 21 13 21 -2 0 -10 -8 -17
-17z"/>
</g>
</svg>
